<mxfile host="app.diagrams.net" agent="Mozilla/5.0 (Macintosh; Intel Mac OS X 10_15_7) AppleWebKit/605.1.15 (KHTML, like Gecko) Version/18.0.1 Safari/605.1.15" version="24.8.4" pages="2">
  <diagram name="Common model" id="DQiwPlul8rODaZ9idR1y">
    <mxGraphModel dx="658" dy="429" grid="1" gridSize="10" guides="1" tooltips="1" connect="1" arrows="1" fold="1" page="1" pageScale="1" pageWidth="827" pageHeight="1169" math="0" shadow="0">
      <root>
        <mxCell id="0" />
        <mxCell id="1" parent="0" />
        <mxCell id="ChNeA1hL08W3Tv45A1AK-1" value="" style="endArrow=classic;html=1;rounded=0;" edge="1" parent="1">
          <mxGeometry width="50" height="50" relative="1" as="geometry">
            <mxPoint x="80" y="520" as="sourcePoint" />
            <mxPoint x="800" y="520" as="targetPoint" />
          </mxGeometry>
        </mxCell>
        <mxCell id="ChNeA1hL08W3Tv45A1AK-17" value="" style="edgeStyle=orthogonalEdgeStyle;rounded=0;orthogonalLoop=1;jettySize=auto;html=1;" edge="1" parent="1" source="ChNeA1hL08W3Tv45A1AK-3" target="ChNeA1hL08W3Tv45A1AK-7">
          <mxGeometry relative="1" as="geometry" />
        </mxCell>
        <mxCell id="ChNeA1hL08W3Tv45A1AK-3" value="Общая модель корпуса" style="rounded=1;whiteSpace=wrap;html=1;fillColor=#f8cecc;strokeColor=#b85450;" vertex="1" parent="1">
          <mxGeometry x="110" y="120" width="120" height="60" as="geometry" />
        </mxCell>
        <mxCell id="ChNeA1hL08W3Tv45A1AK-15" value="" style="edgeStyle=orthogonalEdgeStyle;rounded=0;orthogonalLoop=1;jettySize=auto;html=1;" edge="1" parent="1" source="ChNeA1hL08W3Tv45A1AK-4" target="ChNeA1hL08W3Tv45A1AK-8">
          <mxGeometry relative="1" as="geometry" />
        </mxCell>
        <mxCell id="ChNeA1hL08W3Tv45A1AK-4" value="Модель управления 3 силовыми осями" style="rounded=1;whiteSpace=wrap;html=1;" vertex="1" parent="1">
          <mxGeometry x="110" y="280" width="120" height="60" as="geometry" />
        </mxCell>
        <mxCell id="ChNeA1hL08W3Tv45A1AK-18" value="" style="edgeStyle=orthogonalEdgeStyle;rounded=0;orthogonalLoop=1;jettySize=auto;html=1;" edge="1" parent="1" source="ChNeA1hL08W3Tv45A1AK-5" target="ChNeA1hL08W3Tv45A1AK-16">
          <mxGeometry relative="1" as="geometry" />
        </mxCell>
        <mxCell id="ChNeA1hL08W3Tv45A1AK-5" value="Модель позиционирования" style="rounded=1;whiteSpace=wrap;html=1;" vertex="1" parent="1">
          <mxGeometry x="110" y="440" width="120" height="60" as="geometry" />
        </mxCell>
        <mxCell id="ChNeA1hL08W3Tv45A1AK-13" value="" style="edgeStyle=orthogonalEdgeStyle;rounded=0;orthogonalLoop=1;jettySize=auto;html=1;" edge="1" parent="1" source="ChNeA1hL08W3Tv45A1AK-6" target="ChNeA1hL08W3Tv45A1AK-11">
          <mxGeometry relative="1" as="geometry" />
        </mxCell>
        <mxCell id="ChNeA1hL08W3Tv45A1AK-6" value="Модель зарядки" style="rounded=1;whiteSpace=wrap;html=1;" vertex="1" parent="1">
          <mxGeometry x="110" y="360" width="120" height="60" as="geometry" />
        </mxCell>
        <mxCell id="ChNeA1hL08W3Tv45A1AK-32" value="" style="edgeStyle=orthogonalEdgeStyle;rounded=0;orthogonalLoop=1;jettySize=auto;html=1;" edge="1" parent="1" source="ChNeA1hL08W3Tv45A1AK-7" target="ChNeA1hL08W3Tv45A1AK-31">
          <mxGeometry relative="1" as="geometry" />
        </mxCell>
        <mxCell id="ChNeA1hL08W3Tv45A1AK-7" value="Прототип (оценка трудоемкости, материалоёмкости, изготовления, изготовление корпусных деталей)" style="rounded=1;whiteSpace=wrap;html=1;fillColor=#f8cecc;strokeColor=#b85450;" vertex="1" parent="1">
          <mxGeometry x="260" y="120" width="200" height="60" as="geometry" />
        </mxCell>
        <mxCell id="ChNeA1hL08W3Tv45A1AK-20" value="" style="edgeStyle=orthogonalEdgeStyle;rounded=0;orthogonalLoop=1;jettySize=auto;html=1;" edge="1" parent="1" source="ChNeA1hL08W3Tv45A1AK-8" target="ChNeA1hL08W3Tv45A1AK-19">
          <mxGeometry relative="1" as="geometry" />
        </mxCell>
        <mxCell id="ChNeA1hL08W3Tv45A1AK-36" style="edgeStyle=orthogonalEdgeStyle;rounded=0;orthogonalLoop=1;jettySize=auto;html=1;" edge="1" parent="1" source="ChNeA1hL08W3Tv45A1AK-8">
          <mxGeometry relative="1" as="geometry">
            <mxPoint x="500" y="280" as="targetPoint" />
          </mxGeometry>
        </mxCell>
        <mxCell id="ChNeA1hL08W3Tv45A1AK-8" value="Проработка экспериментальной&lt;div&gt;схемотехники осей (ODrive-based)&lt;/div&gt;" style="rounded=1;whiteSpace=wrap;html=1;fillColor=#dae8fc;strokeColor=#6c8ebf;" vertex="1" parent="1">
          <mxGeometry x="260" y="280" width="120" height="60" as="geometry" />
        </mxCell>
        <mxCell id="ChNeA1hL08W3Tv45A1AK-10" value="10.2024" style="text;html=1;align=center;verticalAlign=middle;resizable=0;points=[];autosize=1;strokeColor=none;fillColor=none;" vertex="1" parent="1">
          <mxGeometry x="40" y="538" width="70" height="30" as="geometry" />
        </mxCell>
        <mxCell id="ChNeA1hL08W3Tv45A1AK-14" value="" style="edgeStyle=orthogonalEdgeStyle;rounded=0;orthogonalLoop=1;jettySize=auto;html=1;" edge="1" parent="1" source="ChNeA1hL08W3Tv45A1AK-42" target="ChNeA1hL08W3Tv45A1AK-12">
          <mxGeometry relative="1" as="geometry" />
        </mxCell>
        <mxCell id="ChNeA1hL08W3Tv45A1AK-11" value="Проработка схемотехники зарядной установки AGM" style="rounded=1;whiteSpace=wrap;html=1;fillColor=#dae8fc;strokeColor=#6c8ebf;" vertex="1" parent="1">
          <mxGeometry x="260" y="360" width="120" height="60" as="geometry" />
        </mxCell>
        <mxCell id="ChNeA1hL08W3Tv45A1AK-12" value="Проработка мониторинга заряда" style="rounded=1;whiteSpace=wrap;html=1;fillColor=#dae8fc;strokeColor=#6c8ebf;" vertex="1" parent="1">
          <mxGeometry x="540" y="360" width="120" height="60" as="geometry" />
        </mxCell>
        <mxCell id="T3flJFtCANlq7AjZzkL6-3" value="" style="edgeStyle=orthogonalEdgeStyle;rounded=0;orthogonalLoop=1;jettySize=auto;html=1;" edge="1" parent="1" source="ChNeA1hL08W3Tv45A1AK-16" target="T3flJFtCANlq7AjZzkL6-1">
          <mxGeometry relative="1" as="geometry">
            <Array as="points">
              <mxPoint x="740" y="470" />
            </Array>
          </mxGeometry>
        </mxCell>
        <mxCell id="ChNeA1hL08W3Tv45A1AK-16" value="Создание экспериментального sensorbar" style="rounded=1;whiteSpace=wrap;html=1;fillColor=#dae8fc;strokeColor=#6c8ebf;" vertex="1" parent="1">
          <mxGeometry x="260" y="440" width="120" height="60" as="geometry" />
        </mxCell>
        <mxCell id="T3flJFtCANlq7AjZzkL6-13" style="edgeStyle=orthogonalEdgeStyle;rounded=0;orthogonalLoop=1;jettySize=auto;html=1;entryX=0.75;entryY=1;entryDx=0;entryDy=0;" edge="1" parent="1" source="ChNeA1hL08W3Tv45A1AK-19" target="T3flJFtCANlq7AjZzkL6-1">
          <mxGeometry relative="1" as="geometry">
            <Array as="points">
              <mxPoint x="650" y="270" />
              <mxPoint x="730" y="270" />
            </Array>
          </mxGeometry>
        </mxCell>
        <mxCell id="ChNeA1hL08W3Tv45A1AK-19" value="Интеграция в сеть CAN" style="rounded=1;whiteSpace=wrap;html=1;fillColor=#dae8fc;strokeColor=#6c8ebf;" vertex="1" parent="1">
          <mxGeometry x="590" y="280" width="120" height="60" as="geometry" />
        </mxCell>
        <mxCell id="ChNeA1hL08W3Tv45A1AK-28" style="edgeStyle=orthogonalEdgeStyle;rounded=0;orthogonalLoop=1;jettySize=auto;html=1;" edge="1" parent="1" source="ChNeA1hL08W3Tv45A1AK-24" target="ChNeA1hL08W3Tv45A1AK-25">
          <mxGeometry relative="1" as="geometry" />
        </mxCell>
        <mxCell id="ChNeA1hL08W3Tv45A1AK-24" value="Модель интеграции в систему планирования поездок" style="rounded=1;whiteSpace=wrap;html=1;fillColor=#d5e8d4;strokeColor=#82b366;" vertex="1" parent="1">
          <mxGeometry x="110" y="200" width="120" height="60" as="geometry" />
        </mxCell>
        <mxCell id="ChNeA1hL08W3Tv45A1AK-25" value="HMI + получение задания&lt;div&gt;(ESP32+WiFi/App)&lt;/div&gt;" style="rounded=1;whiteSpace=wrap;html=1;fillColor=#d5e8d4;strokeColor=#82b366;" vertex="1" parent="1">
          <mxGeometry x="260" y="200" width="120" height="60" as="geometry" />
        </mxCell>
        <mxCell id="ChNeA1hL08W3Tv45A1AK-29" style="edgeStyle=orthogonalEdgeStyle;rounded=0;orthogonalLoop=1;jettySize=auto;html=1;entryX=0.2;entryY=0.017;entryDx=0;entryDy=0;entryPerimeter=0;" edge="1" parent="1" source="ChNeA1hL08W3Tv45A1AK-25" target="ChNeA1hL08W3Tv45A1AK-19">
          <mxGeometry relative="1" as="geometry" />
        </mxCell>
        <mxCell id="ChNeA1hL08W3Tv45A1AK-40" value="" style="edgeStyle=orthogonalEdgeStyle;rounded=0;orthogonalLoop=1;jettySize=auto;html=1;" edge="1" parent="1" source="ChNeA1hL08W3Tv45A1AK-31" target="ChNeA1hL08W3Tv45A1AK-39">
          <mxGeometry relative="1" as="geometry" />
        </mxCell>
        <mxCell id="ChNeA1hL08W3Tv45A1AK-31" value="Размещение электроники" style="rounded=1;whiteSpace=wrap;html=1;fillColor=#f8cecc;strokeColor=#b85450;" vertex="1" parent="1">
          <mxGeometry x="480" y="120" width="120" height="60" as="geometry" />
        </mxCell>
        <mxCell id="ChNeA1hL08W3Tv45A1AK-34" value="" style="endArrow=none;html=1;rounded=0;" edge="1" parent="1">
          <mxGeometry width="50" height="50" relative="1" as="geometry">
            <mxPoint x="80" y="520" as="sourcePoint" />
            <mxPoint x="80" y="80" as="targetPoint" />
          </mxGeometry>
        </mxCell>
        <mxCell id="ChNeA1hL08W3Tv45A1AK-38" style="edgeStyle=orthogonalEdgeStyle;rounded=0;orthogonalLoop=1;jettySize=auto;html=1;entryX=0.5;entryY=1;entryDx=0;entryDy=0;" edge="1" parent="1" source="ChNeA1hL08W3Tv45A1AK-37" target="ChNeA1hL08W3Tv45A1AK-31">
          <mxGeometry relative="1" as="geometry" />
        </mxCell>
        <mxCell id="ChNeA1hL08W3Tv45A1AK-37" value="Подбор двигателей, редукторов" style="rounded=1;whiteSpace=wrap;html=1;fillColor=#f8cecc;strokeColor=#b85450;" vertex="1" parent="1">
          <mxGeometry x="450" y="240" width="120" height="60" as="geometry" />
        </mxCell>
        <mxCell id="ChNeA1hL08W3Tv45A1AK-39" value="Подтверждение точности позиционирования" style="rounded=1;whiteSpace=wrap;html=1;fillColor=#60a917;strokeColor=#2D7600;fontColor=#ffffff;" vertex="1" parent="1">
          <mxGeometry x="660" y="120" width="120" height="60" as="geometry" />
        </mxCell>
        <mxCell id="ChNeA1hL08W3Tv45A1AK-43" value="" style="edgeStyle=orthogonalEdgeStyle;rounded=0;orthogonalLoop=1;jettySize=auto;html=1;" edge="1" parent="1" source="ChNeA1hL08W3Tv45A1AK-11" target="ChNeA1hL08W3Tv45A1AK-42">
          <mxGeometry relative="1" as="geometry">
            <mxPoint x="390" y="390" as="sourcePoint" />
            <mxPoint x="530" y="390" as="targetPoint" />
          </mxGeometry>
        </mxCell>
        <mxCell id="ChNeA1hL08W3Tv45A1AK-42" value="Экспериментальная система заряда" style="rounded=1;whiteSpace=wrap;html=1;fillColor=#dae8fc;strokeColor=#6c8ebf;" vertex="1" parent="1">
          <mxGeometry x="400" y="360" width="120" height="60" as="geometry" />
        </mxCell>
        <mxCell id="T3flJFtCANlq7AjZzkL6-1" value="Обкатка на тестовой модели" style="rounded=1;whiteSpace=wrap;html=1;fillColor=#dae8fc;strokeColor=#6c8ebf;" vertex="1" parent="1">
          <mxGeometry x="640" y="200" width="120" height="60" as="geometry" />
        </mxCell>
        <mxCell id="T3flJFtCANlq7AjZzkL6-10" style="edgeStyle=orthogonalEdgeStyle;rounded=0;orthogonalLoop=1;jettySize=auto;html=1;entryX=0;entryY=0.65;entryDx=0;entryDy=0;entryPerimeter=0;" edge="1" parent="1" source="T3flJFtCANlq7AjZzkL6-1" target="ChNeA1hL08W3Tv45A1AK-39">
          <mxGeometry relative="1" as="geometry">
            <Array as="points">
              <mxPoint x="700" y="190" />
              <mxPoint x="640" y="190" />
              <mxPoint x="640" y="159" />
            </Array>
          </mxGeometry>
        </mxCell>
        <mxCell id="T3flJFtCANlq7AjZzkL6-14" style="edgeStyle=orthogonalEdgeStyle;rounded=0;orthogonalLoop=1;jettySize=auto;html=1;entryX=0.004;entryY=0.659;entryDx=0;entryDy=0;entryPerimeter=0;" edge="1" parent="1" source="ChNeA1hL08W3Tv45A1AK-12" target="ChNeA1hL08W3Tv45A1AK-19">
          <mxGeometry relative="1" as="geometry">
            <Array as="points">
              <mxPoint x="570" y="320" />
            </Array>
          </mxGeometry>
        </mxCell>
      </root>
    </mxGraphModel>
  </diagram>
  <diagram id="gvKyE9CmvKzYFkRHO_VB" name="Positioning MVP">
    <mxGraphModel dx="1122" dy="732" grid="1" gridSize="10" guides="1" tooltips="1" connect="1" arrows="1" fold="1" page="1" pageScale="1" pageWidth="827" pageHeight="1169" math="0" shadow="0">
      <root>
        <mxCell id="0" />
        <mxCell id="1" parent="0" />
        <mxCell id="hCOl66x6lOP0CouyzmRs-1" value="" style="rounded=0;whiteSpace=wrap;html=1;" vertex="1" parent="1">
          <mxGeometry x="10" y="250" width="790" height="80" as="geometry" />
        </mxCell>
        <mxCell id="hCOl66x6lOP0CouyzmRs-2" value="STM32" style="rounded=0;whiteSpace=wrap;html=1;" vertex="1" parent="1">
          <mxGeometry x="20" y="260" width="120" height="60" as="geometry" />
        </mxCell>
        <mxCell id="hCOl66x6lOP0CouyzmRs-3" value="" style="rounded=0;whiteSpace=wrap;html=1;" vertex="1" parent="1">
          <mxGeometry x="170" y="250" width="40" height="20" as="geometry" />
        </mxCell>
        <mxCell id="hCOl66x6lOP0CouyzmRs-4" value="" style="rounded=0;whiteSpace=wrap;html=1;" vertex="1" parent="1">
          <mxGeometry x="270" y="310" width="40" height="20" as="geometry" />
        </mxCell>
        <mxCell id="hCOl66x6lOP0CouyzmRs-5" value="" style="rounded=0;whiteSpace=wrap;html=1;" vertex="1" parent="1">
          <mxGeometry x="360" y="250" width="40" height="20" as="geometry" />
        </mxCell>
        <mxCell id="hCOl66x6lOP0CouyzmRs-6" value="" style="rounded=0;whiteSpace=wrap;html=1;" vertex="1" parent="1">
          <mxGeometry x="490" y="310" width="40" height="20" as="geometry" />
        </mxCell>
        <mxCell id="hCOl66x6lOP0CouyzmRs-7" value="" style="rounded=0;whiteSpace=wrap;html=1;" vertex="1" parent="1">
          <mxGeometry x="600" y="250" width="40" height="20" as="geometry" />
        </mxCell>
        <mxCell id="hCOl66x6lOP0CouyzmRs-8" value="" style="rounded=0;whiteSpace=wrap;html=1;" vertex="1" parent="1">
          <mxGeometry x="720" y="310" width="40" height="20" as="geometry" />
        </mxCell>
        <mxCell id="hCOl66x6lOP0CouyzmRs-9" value="" style="rounded=0;whiteSpace=wrap;html=1;" vertex="1" parent="1">
          <mxGeometry x="770" y="265" width="30" height="50" as="geometry" />
        </mxCell>
        <mxCell id="hCOl66x6lOP0CouyzmRs-10" value="" style="endArrow=none;html=1;rounded=0;exitX=1;exitY=0.5;exitDx=0;exitDy=0;entryX=0;entryY=0.5;entryDx=0;entryDy=0;shape=link;" edge="1" parent="1" source="hCOl66x6lOP0CouyzmRs-2" target="hCOl66x6lOP0CouyzmRs-9">
          <mxGeometry width="50" height="50" relative="1" as="geometry">
            <mxPoint x="390" y="350" as="sourcePoint" />
            <mxPoint x="440" y="300" as="targetPoint" />
            <Array as="points">
              <mxPoint x="270" y="290" />
            </Array>
          </mxGeometry>
        </mxCell>
        <mxCell id="hCOl66x6lOP0CouyzmRs-11" value="" style="rounded=0;whiteSpace=wrap;html=1;" vertex="1" parent="1">
          <mxGeometry x="10" y="400" width="790" height="80" as="geometry" />
        </mxCell>
        <mxCell id="hCOl66x6lOP0CouyzmRs-13" value="" style="rounded=0;whiteSpace=wrap;html=1;" vertex="1" parent="1">
          <mxGeometry x="170" y="400" width="40" height="20" as="geometry" />
        </mxCell>
        <mxCell id="hCOl66x6lOP0CouyzmRs-14" value="" style="rounded=0;whiteSpace=wrap;html=1;" vertex="1" parent="1">
          <mxGeometry x="270" y="460" width="40" height="20" as="geometry" />
        </mxCell>
        <mxCell id="hCOl66x6lOP0CouyzmRs-15" value="" style="rounded=0;whiteSpace=wrap;html=1;" vertex="1" parent="1">
          <mxGeometry x="360" y="400" width="40" height="20" as="geometry" />
        </mxCell>
        <mxCell id="hCOl66x6lOP0CouyzmRs-16" value="" style="rounded=0;whiteSpace=wrap;html=1;" vertex="1" parent="1">
          <mxGeometry x="490" y="460" width="40" height="20" as="geometry" />
        </mxCell>
        <mxCell id="hCOl66x6lOP0CouyzmRs-17" value="" style="rounded=0;whiteSpace=wrap;html=1;" vertex="1" parent="1">
          <mxGeometry x="600" y="400" width="40" height="20" as="geometry" />
        </mxCell>
        <mxCell id="hCOl66x6lOP0CouyzmRs-18" value="" style="rounded=0;whiteSpace=wrap;html=1;" vertex="1" parent="1">
          <mxGeometry x="720" y="460" width="40" height="20" as="geometry" />
        </mxCell>
        <mxCell id="hCOl66x6lOP0CouyzmRs-19" value="" style="rounded=0;whiteSpace=wrap;html=1;" vertex="1" parent="1">
          <mxGeometry x="770" y="415" width="30" height="50" as="geometry" />
        </mxCell>
        <mxCell id="hCOl66x6lOP0CouyzmRs-20" value="" style="endArrow=none;html=1;rounded=0;exitX=1;exitY=0.5;exitDx=0;exitDy=0;entryX=0;entryY=0.5;entryDx=0;entryDy=0;shape=link;" edge="1" parent="1" source="hCOl66x6lOP0CouyzmRs-21" target="hCOl66x6lOP0CouyzmRs-19">
          <mxGeometry width="50" height="50" relative="1" as="geometry">
            <mxPoint x="140" y="440" as="sourcePoint" />
            <mxPoint x="440" y="450" as="targetPoint" />
          </mxGeometry>
        </mxCell>
        <mxCell id="hCOl66x6lOP0CouyzmRs-21" value="" style="rounded=0;whiteSpace=wrap;html=1;" vertex="1" parent="1">
          <mxGeometry x="10" y="415" width="30" height="50" as="geometry" />
        </mxCell>
        <mxCell id="hCOl66x6lOP0CouyzmRs-25" value="Magnet" style="ellipse;whiteSpace=wrap;html=1;aspect=fixed;" vertex="1" parent="1">
          <mxGeometry x="240" y="190" width="40" height="40" as="geometry" />
        </mxCell>
        <mxCell id="hCOl66x6lOP0CouyzmRs-26" value="" style="curved=1;endArrow=classic;html=1;rounded=0;fillColor=#d80073;strokeColor=#A50040;" edge="1" parent="1">
          <mxGeometry width="50" height="50" relative="1" as="geometry">
            <mxPoint x="340" y="220" as="sourcePoint" />
            <mxPoint x="180" y="220" as="targetPoint" />
            <Array as="points">
              <mxPoint x="280" y="280" />
              <mxPoint x="180" y="230" />
            </Array>
          </mxGeometry>
        </mxCell>
        <mxCell id="hCOl66x6lOP0CouyzmRs-27" value="" style="curved=1;endArrow=classic;html=1;rounded=0;fillColor=#a20025;strokeColor=#6F0000;" edge="1" parent="1">
          <mxGeometry width="50" height="50" relative="1" as="geometry">
            <mxPoint x="380" y="250" as="sourcePoint" />
            <mxPoint x="160" y="240" as="targetPoint" />
            <Array as="points">
              <mxPoint x="280" y="310" />
              <mxPoint x="160" y="250" />
            </Array>
          </mxGeometry>
        </mxCell>
        <mxCell id="hCOl66x6lOP0CouyzmRs-28" value="" style="curved=1;endArrow=classic;html=1;rounded=0;fillColor=#a0522d;strokeColor=#6D1F00;" edge="1" parent="1">
          <mxGeometry width="50" height="50" relative="1" as="geometry">
            <mxPoint x="460" y="240" as="sourcePoint" />
            <mxPoint x="120" y="245" as="targetPoint" />
            <Array as="points">
              <mxPoint x="290" y="370" />
              <mxPoint x="120" y="255" />
            </Array>
          </mxGeometry>
        </mxCell>
        <mxCell id="hCOl66x6lOP0CouyzmRs-29" value="I2C" style="text;html=1;align=center;verticalAlign=middle;resizable=0;points=[];autosize=1;strokeColor=none;fillColor=none;" vertex="1" parent="1">
          <mxGeometry x="520" y="260" width="40" height="30" as="geometry" />
        </mxCell>
        <mxCell id="hCOl66x6lOP0CouyzmRs-30" value="I2C" style="text;html=1;align=center;verticalAlign=middle;resizable=0;points=[];autosize=1;strokeColor=none;fillColor=none;" vertex="1" parent="1">
          <mxGeometry x="530" y="410" width="40" height="30" as="geometry" />
        </mxCell>
        <mxCell id="hCOl66x6lOP0CouyzmRs-32" value="" style="endArrow=classic;startArrow=classic;html=1;rounded=0;exitX=0;exitY=0.5;exitDx=0;exitDy=0;entryX=1;entryY=0.5;entryDx=0;entryDy=0;" edge="1" parent="1" source="hCOl66x6lOP0CouyzmRs-21" target="hCOl66x6lOP0CouyzmRs-9">
          <mxGeometry width="50" height="50" relative="1" as="geometry">
            <mxPoint x="300" y="330" as="sourcePoint" />
            <mxPoint x="350" y="280" as="targetPoint" />
          </mxGeometry>
        </mxCell>
        <mxCell id="hCOl66x6lOP0CouyzmRs-33" value="" style="rounded=0;whiteSpace=wrap;html=1;" vertex="1" parent="1">
          <mxGeometry x="10" y="545" width="790" height="80" as="geometry" />
        </mxCell>
        <mxCell id="hCOl66x6lOP0CouyzmRs-34" value="" style="rounded=0;whiteSpace=wrap;html=1;" vertex="1" parent="1">
          <mxGeometry x="170" y="545" width="40" height="20" as="geometry" />
        </mxCell>
        <mxCell id="hCOl66x6lOP0CouyzmRs-35" value="" style="rounded=0;whiteSpace=wrap;html=1;" vertex="1" parent="1">
          <mxGeometry x="270" y="605" width="40" height="20" as="geometry" />
        </mxCell>
        <mxCell id="hCOl66x6lOP0CouyzmRs-36" value="" style="rounded=0;whiteSpace=wrap;html=1;" vertex="1" parent="1">
          <mxGeometry x="360" y="545" width="40" height="20" as="geometry" />
        </mxCell>
        <mxCell id="hCOl66x6lOP0CouyzmRs-37" value="" style="rounded=0;whiteSpace=wrap;html=1;" vertex="1" parent="1">
          <mxGeometry x="490" y="605" width="40" height="20" as="geometry" />
        </mxCell>
        <mxCell id="hCOl66x6lOP0CouyzmRs-38" value="" style="rounded=0;whiteSpace=wrap;html=1;" vertex="1" parent="1">
          <mxGeometry x="600" y="545" width="40" height="20" as="geometry" />
        </mxCell>
        <mxCell id="hCOl66x6lOP0CouyzmRs-39" value="" style="rounded=0;whiteSpace=wrap;html=1;" vertex="1" parent="1">
          <mxGeometry x="720" y="605" width="40" height="20" as="geometry" />
        </mxCell>
        <mxCell id="hCOl66x6lOP0CouyzmRs-40" value="" style="rounded=0;whiteSpace=wrap;html=1;" vertex="1" parent="1">
          <mxGeometry x="770" y="560" width="30" height="50" as="geometry" />
        </mxCell>
        <mxCell id="hCOl66x6lOP0CouyzmRs-41" value="" style="endArrow=none;html=1;rounded=0;exitX=1;exitY=0.5;exitDx=0;exitDy=0;entryX=0;entryY=0.5;entryDx=0;entryDy=0;shape=link;" edge="1" parent="1" source="hCOl66x6lOP0CouyzmRs-42" target="hCOl66x6lOP0CouyzmRs-40">
          <mxGeometry width="50" height="50" relative="1" as="geometry">
            <mxPoint x="140" y="585" as="sourcePoint" />
            <mxPoint x="440" y="595" as="targetPoint" />
          </mxGeometry>
        </mxCell>
        <mxCell id="hCOl66x6lOP0CouyzmRs-42" value="" style="rounded=0;whiteSpace=wrap;html=1;" vertex="1" parent="1">
          <mxGeometry x="10" y="560" width="30" height="50" as="geometry" />
        </mxCell>
        <mxCell id="hCOl66x6lOP0CouyzmRs-43" value="I2C" style="text;html=1;align=center;verticalAlign=middle;resizable=0;points=[];autosize=1;strokeColor=none;fillColor=none;" vertex="1" parent="1">
          <mxGeometry x="530" y="555" width="40" height="30" as="geometry" />
        </mxCell>
        <mxCell id="hCOl66x6lOP0CouyzmRs-44" value="" style="endArrow=classic;startArrow=classic;html=1;rounded=0;exitX=0;exitY=0.5;exitDx=0;exitDy=0;entryX=1;entryY=0.5;entryDx=0;entryDy=0;" edge="1" parent="1">
          <mxGeometry width="50" height="50" relative="1" as="geometry">
            <mxPoint x="10" y="590" as="sourcePoint" />
            <mxPoint x="800" y="440" as="targetPoint" />
          </mxGeometry>
        </mxCell>
      </root>
    </mxGraphModel>
  </diagram>
</mxfile>
